<svg width="64" height="64" viewBox="0 0 64 64" fill="none" xmlns="http://www.w3.org/2000/svg">
<path d="M7.34669 39.2427L8.72536 44.3947C10.336 50.408 11.144 53.416 12.9707 55.3653C14.4124 56.9035 16.2776 57.9799 18.3307 58.4587C20.9334 59.0667 23.9414 58.2613 29.9574 56.6507C35.968 55.04 38.976 54.2347 40.9254 52.408C41.0854 52.256 41.2454 52.0987 41.3947 51.9387C40.4866 51.8562 39.5838 51.7226 38.6907 51.5387C36.8347 51.1707 34.6294 50.5787 32.0214 49.88L31.736 49.8027L31.6694 49.7867C28.832 49.024 26.4614 48.3893 24.568 47.7067C22.576 46.9867 20.768 46.0987 19.2294 44.6587C17.1129 42.6757 15.6318 40.1098 14.9734 37.2853C14.4934 35.2347 14.632 33.224 15.0054 31.1413C15.3627 29.144 16.0027 26.7493 16.7707 23.8827L18.1974 18.5653L18.2454 18.3787C13.1254 19.7573 10.4294 20.5733 8.63202 22.256C7.092 23.6988 6.01456 25.566 5.53602 27.6213C4.92802 30.2213 5.73336 33.2293 7.34669 39.2427Z" fill="#C4B5FD"/>
<path fill-rule="evenodd" clip-rule="evenodd" d="M55.5467 28.5734L54.1653 33.7254C52.552 39.7387 51.7467 42.7467 49.92 44.696C48.4786 46.2351 46.6134 47.3125 44.56 47.792C44.3013 47.8534 44.04 47.8987 43.7733 47.9307C41.3333 48.232 38.3547 47.4347 32.936 45.984C26.9227 44.3707 23.9147 43.5654 21.9653 41.7387C20.4258 40.2966 19.3484 38.4304 18.8693 36.376C18.2613 33.7734 19.0667 30.768 20.68 24.7547L22.0587 19.6027L22.7093 17.1894C23.9227 12.7467 24.7387 10.3014 26.304 8.62936C27.7457 7.09122 29.6109 6.0148 31.664 5.53602C34.2667 4.92802 37.2747 5.73336 43.2907 7.34669C49.3013 8.95736 52.3093 9.76269 54.2587 11.5867C55.7987 13.0295 56.8761 14.8967 57.3547 16.952C57.9627 19.5547 57.1573 22.56 55.5467 28.5734ZM29.4693 26.1467C29.5374 25.8929 29.6548 25.6551 29.8148 25.4467C29.9748 25.2384 30.1743 25.0636 30.4019 24.9323C30.6295 24.8011 30.8807 24.716 31.1411 24.6818C31.4016 24.6477 31.6663 24.6652 31.92 24.7334L44.8 28.1867C45.0604 28.2484 45.3058 28.3618 45.5216 28.5201C45.7374 28.6784 45.9192 28.8784 46.0563 29.1083C46.1934 29.3382 46.2829 29.5932 46.3196 29.8583C46.3564 30.1234 46.3395 30.3932 46.2701 30.6516C46.2006 30.9101 46.08 31.152 45.9154 31.363C45.7508 31.574 45.5455 31.7498 45.3117 31.88C45.0778 32.0103 44.8203 32.0922 44.5542 32.1211C44.2881 32.1499 44.019 32.1251 43.7627 32.048L30.8827 28.5974C30.3708 28.4599 29.9344 28.1248 29.6694 27.6658C29.4044 27.2068 29.3325 26.6587 29.4693 26.1467ZM27.4 33.8774C27.5375 33.3655 27.8725 32.9291 28.3315 32.6641C28.7905 32.3991 29.336 32.3272 29.848 32.464L37.576 34.536C37.8377 34.5964 38.0845 34.7089 38.3017 34.8667C38.519 35.0245 38.7022 35.2245 38.8405 35.4547C38.9788 35.6848 39.0694 35.9405 39.1068 36.2064C39.1441 36.4723 39.1276 36.7431 39.0581 37.0024C38.9886 37.2618 38.8676 37.5046 38.7022 37.7162C38.5369 37.9278 38.3306 38.1039 38.0958 38.2341C37.8609 38.3643 37.6022 38.4458 37.3352 38.4738C37.0681 38.5019 36.7981 38.4759 36.5413 38.3974L28.8133 36.328C28.5596 36.26 28.3217 36.1426 28.1134 35.9826C27.905 35.8226 27.7302 35.6231 27.599 35.3955C27.4677 35.1679 27.3826 34.9167 27.3485 34.6562C27.3143 34.3957 27.3318 34.1311 27.4 33.8774Z" fill="#C4B5FD"/>
</svg>
